<svg xmlns="http://www.w3.org/2000/svg" enable-background="new 0 0 1080 1080" viewBox="0 0 1080 1080" id="business-goal"><path fill="#f7f7f7" d="M257.51 303.89c-32.39 14.57-65.44 30.81-88.19 58.09-7.59 9.1-14.12 20.15-13.46 31.98 1.23 22.06 26.53 35.2 48.62 35.24s43.58-8.24 65.67-8.18c11.4.03 25.67 5.55 25.52 16.96-.09 6.82-5.57 12.19-10.65 16.73-38.99 34.85-77.98 69.7-116.98 104.55-12.99 11.61-26.39 23.78-33.15 39.84-6.76 16.06-4.81 37.22 9.18 47.62 9.21 6.85 21.44 7.75 32.92 7.95 52.13.93 103.99-7.09 155.26-16.54 181.29-33.4 359.21-85 530.25-153.75 31.32-12.59 64.94-28.06 79.85-58.34 17.22-35-1.15-82.83-37.38-97.29-21.65-8.65-45.99-6.18-68.91-10.42-22.92-4.24-47.5-19.95-47.74-43.25-.38-38.55 62-53.18 63.79-91.69.95-20.39-17.58-37.62-37.51-42.05s-40.63.91-60.11 7.03c0-.02-353.3 90.9-496.98 155.52z"></path><path fill="#cce9ff" d="M203.79 703.85c16.43-14.39 35.22-29.65 57.03-28.67 18.11.81 33.9 13 45.16 27.22 11.26 14.21 19.23 30.75 30.03 45.32 11.38 15.34 27.82 29.16 46.92 29.02 20.05-.15 36.42-15.28 50.61-29.45l93.96-93.81c17.35-17.32 38.4-36 62.73-33.01 24.29 2.99 40.18 26.17 52.82 47.13 19.23 31.89 38.45 63.79 57.68 95.68 3.83 6.36 7.93 12.98 14.37 16.68 17.03 9.79 37.08-5.77 50.55-20.07 13.87-14.73 28.14-29.68 46.04-39.13 17.89-9.45 40.36-12.61 58.24-3.13 11.4 6.04 19.75 16.44 27.77 26.55 30.97 39.06 61.95 78.12 92.92 117.18H49.33c0-.01 102.97-112.42 154.46-157.51z"></path><path fill="#cce9ff" d="M223.87 704.91c12.96-11.33 27.14-23.47 44.42-27.23 17.56-3.82 34.11 3.96 46.68 15.91 24.04 22.86 32.74 58.91 61.82 76.99 12.63 7.85 27.42 9.88 41.38 4.36 14.23-5.62 25.52-16.69 36.17-27.31 28.29-28.22 56.57-56.47 84.85-84.71 21.76-21.73 52.2-54.54 85.75-35.66 13.52 7.61 23.09 20.8 31.26 33.63 10.13 15.92 19.58 32.3 29.32 48.46 10.3 17.09 20.6 34.17 30.9 51.26 7.34 12.17 15.75 25.41 31.95 23.75 14.37-1.48 26.73-12.36 36.33-22.32 12.3-12.76 24.31-25.96 39.33-35.62 14.85-9.56 33.08-15.44 50.81-12.12 17.87 3.35 29.56 16.74 40.33 30.29 24.98 31.43 49.89 62.92 74.84 94.38 6.19 7.81 12.39 15.62 18.58 23.44.35-.85.71-1.71 1.06-2.56H82.53c-4.01 0-8.62-.64-12.6 0-.49.08-1.06 0-1.56 0 .35.85.71 1.71 1.06 2.56 37.44-40.87 75.58-81.22 114.98-120.21 12.84-12.73 25.85-25.35 39.46-37.29 1.45-1.28-.67-3.39-2.12-2.12-26.16 22.95-50.53 48.02-74.74 72.98-22.47 23.17-44.64 46.65-66.6 70.31-4.38 4.72-8.77 9.45-13.12 14.21-.86.94-.28 2.56 1.06 2.56h903c12.22 0 24.5.34 36.72 0 .52-.01 1.04 0 1.56 0 1.41 0 1.83-1.59 1.06-2.56-25.6-32.29-51.21-64.58-76.81-96.87-11-13.87-21.37-29.84-35.23-41.08-12.28-9.96-27.56-13.44-43.1-11.28-16.11 2.24-30.56 10.04-43.16 20.06-13.79 10.97-24.57 24.94-37.82 36.43-13.15 11.41-32.69 21.31-46.54 5.23-6.3-7.32-10.77-16.55-15.74-24.79-5.32-8.83-10.64-17.65-15.96-26.48l-31.41-52.11c-7.74-12.84-15.78-25.94-26.91-36.17-9.98-9.17-22.59-15.3-36.4-14.51-15.03.86-28.33 9.13-39.66 18.46-14.4 11.86-27.13 25.87-40.32 39.03-14.49 14.47-28.98 28.94-43.48 43.4-13.2 13.18-25.94 27.21-40.17 39.28-13.54 11.49-30.33 20.1-48.34 14.41-34.63-10.94-45.45-52.14-67.62-76.76-10.1-11.22-23.38-20.7-38.7-22.57-15.75-1.93-30.57 4.97-43.12 13.88-6.46 4.58-12.49 9.72-18.45 14.93-1.46 1.29.67 3.4 2.12 2.13z"></path><path fill="#dcf2ff" d="M933.18 399.15c-19.53-18.48-43.23-23.66-72.55-22.29-4.8.23-10.17 1.03-12.94 4.35-2.76 3.32.22 9.38 4.91 8.45-33.11-15.66-72.58-21.55-110.06-16.42-4.14.57-8.65 1.47-11.13 4.32-2.47 2.86-.83 8.08 3.37 8.12-30.79-12.77-86.32 11.89-80.76 14.02l279.16-.55zM798.36 575.79c-18.05-17.08-39.96-21.87-67.05-20.6-4.44.21-9.4.95-11.96 4.02-2.55 3.07.21 8.67 4.53 7.81-30.6-14.48-67.08-19.92-101.72-15.18-3.83.52-8 1.36-10.28 4-2.29 2.64-.77 7.47 3.11 7.51-28.46-11.81-79.77 10.99-74.63 12.96l258-.52z"></path><path fill="#ffbe55" d="m254.73 534.01-200.78 4.2 91.93 18.85-49.71 36.25 161.36-37.72z"></path><path fill="#ffbe55" d="M261.87 563.24 43.99 691.47l120.3-90.43-115.32-2.49 212.9-53.5z"></path><path fill="#ffbe55" d="m91.86 642.49 32.95-29.29L9.5 605.65l78.91-42.38-75.9-35.62h92.41l-52.57-58.48 1.75.56c2.01.64 200.79 63.79 207.77 63.79h1.27l-63.3 58.86-107.98 50.11zm-78.81-37.61 114.22 7.48-29.65 26.36 101.74-47.22 61.42-57.14c-16.54-3.26-184.82-56.65-205.22-63.13l51.61 57.41H16.99l73.64 34.56-77.58 41.68z"></path><path fill="#ffbe55" d="m245.15 527.68-129.76-51.74 27.35 35.16-122.08-16.15 236.87 56.19z"></path><path fill="#2189d6" d="M457.54 368.35s-16.29 57.66 43.01 65.45c-2.96 6.17-3.56 8.68-3.56 8.68s-60.41-14.45-57.41-51.28c10.64-23.25 17.96-22.85 17.96-22.85z"></path><path fill="#2a94f4" d="m329.24 474.61-60.65-28.87-68.96 82.4 57.9-12.65zM352.95 583.12l-43.09 51.54-97.03-46.14 57.89-12.65z"></path><path fill="#0e538c" d="m278.6 566.5-24.34 2.88-9.11-41.7 23.44-6.95z"></path><path fill="#cce9ff" d="M662.64 458.61s-62.19 67.17-142.67 102.69c-1.5.66-3 1.31-4.51 1.94-1.5.65-3.02 1.27-4.53 1.88-13.39 5.41-27.24 9.87-41.34 12.95-68.08 14.88-149.46 10.63-198.66-1.23l-13.4-61.35c39.77-31.32 111.75-70.07 179.83-84.94 14.1-3.08 28.54-4.8 42.97-5.46 1.64-.08 3.28-.14 4.91-.19 1.64-.05 3.27-.09 4.91-.11 87.96-1.29 172.49 33.82 172.49 33.82z"></path><path fill="#2a94f4" d="M662.64 458.61s-62.19 67.17-142.67 102.69c-1.5.66-3 1.31-4.51 1.94-19.52-18-32.58-40.16-37.83-64.21-5.25-24.04-2.62-49.63 7.62-74.13 1.64-.05 3.27-.09 4.91-.11 87.95-1.29 172.48 33.82 172.48 33.82z"></path><path fill="#0e538c" d="M490.15 424.79c-1.64.02-3.27.06-4.91.11-1.63.05-3.27.11-4.91.19-4.63 11.52-7.66 23.25-9.02 34.94-1.56 13.47-.91 26.91 1.94 39.95 2.85 13.04 7.86 25.54 14.9 37.12 6.11 10.06 13.76 19.47 22.77 28.01 1.51-.61 3.03-1.24 4.53-1.88 1.51-.64 3.01-1.28 4.51-1.94-19.2-17.2-32.59-38.6-37.97-63.22-5.37-24.62-2.12-49.64 8.16-73.28z"></path><path fill="#cce9ff" d="M509.31 430.51c25.87 1.18 113.33 18.5 133.44 27.19-17.37-1.33-124.05-20.71-130.24-12.53-2.98-8.45-3.2-14.66-3.2-14.66z"></path><path fill="#2a94f4" d="m342.86 536.94-108.17 23.64-28.46-2.25 24.93-13.91 108.17-23.63z"></path><path fill="#0b4870" d="m449.38 536.54 16.06 20.52-22.37-13.26v3l-5.4-3.63 5.08-9.16z"></path><path fill="#0b3e60" d="M465.01 483.41c1.47-1.84.45-4.58-1.86-5.02-19.74-3.79-64.02-15.12-70.71-22.45-7.46-8.17 2.84-18.82 10.3-24.5l23.63 10.05 60.93 28.6a3.14 3.14 0 0 1 1.36 4.45l-37.48 63.68s-6.75-.71-11.36-1.78c0 0 17.51-45.38 25.19-53.03z"></path><path fill="#fcd2b1" d="M473.04 438.81h16.7l-5.13 1.57 5.13 4.34-5.52 5.53-11.18-6.51z"></path><path fill="#2a94f4" d="m458.27 366.54-5.98 34.56-25.92 40.38-27.64-7.34 25.91-74.88 29.17-6.31z"></path><path fill="#fcd2b1" d="m466.94 357.52-9.4 10.83-3.73-15.4 4.46-2.78z"></path><path fill="#0e538c" d="M456.41 323.53c-4.27 1.72-6.41 12.66-5.75 14.97.66 2.31 6.96 11.67 6.96 11.67l11.24-24.72-12.45-1.92z"></path><path fill="#ffe3ca" d="M472.99 331.02s8.42 31.92 2.21 30.47c-6.21-1.46-15.29-2.65-16.44-5.73s-3.88-23.37-1.27-26.5 15.02-.22 15.02-.22l.48 1.98z"></path><path fill="#0e538c" d="M455.58 332c-1.5-1.28-2.14-3.49-1.56-5.38.82-2.65 3.65-4.18 6.38-4.66s5.54-.18 8.29-.58c2.74-.4 5.62-1.75 6.66-4.31 1.48 1.32 2.31 3.34 2.19 5.32.92-.83 1.85-1.66 2.77-2.49-1.33 4.05-2.88 8.4-6.44 10.74-3.47 2.27-7.95 2.03-12.08 1.71-.01-.01-4.71.93-6.21-.35z"></path><path fill="#0e538c" d="m461.45 331.39-5.8 8.96-.57-11.14z"></path><ellipse cx="456.59" cy="343.69" fill="#ffe3ca" rx="2.04" ry="2.81" transform="rotate(-16.804 456.512 343.643)"></ellipse><path fill="#45afff" d="M424.64 359.26s-41.52 79.55 50.03 86.56c-.46-4.46-.46-7.9-.46-7.9s-47.37-6.31-40.18-47.48c.77-4.39 2.2-8.63 3.97-12.72 8.06-18.67-13.36-18.46-13.36-18.46z"></path><path fill="#f7f7f7" d="M865.09 565.76c-3.34.41-6.81.84-9.34 1.17-19.79-25.64-36.54-74.17-45.05-128.59 3.12-.38 6.23-.77 9.35-1.15 8.51 54.4 25.25 102.92 45.04 128.57z"></path><path fill="#f7f7f7" d="m865.09 565.76.63.81c-3.12.38-6.23.77-9.35 1.15-.21-.26-.41-.53-.62-.79 2.53-.33 6-.76 9.34-1.17z"></path><path fill="#f7f7f7" d="M865.72 566.57c4.01 5.09 8.15 9.23 12.36 12.29l-9.35 1.15c-4.21-3.06-8.35-7.2-12.36-12.29 3.12-.38 6.23-.77 9.35-1.15z"></path><path fill="#ffbe55" d="M825.52 377.77c1.32 74.11 24.6 150.32 52 170.23l-9.35 1.15c-27.4-19.91-50.68-96.12-52-170.23-.33-18.53.74-35.17 2.97-49.4 3.12-.38 6.23-.77 9.35-1.15-2.22 14.23-3.3 30.87-2.97 49.4z"></path><path fill="#f7f7f7" d="M850.69 464.61c6.89 22.56 16.17 40.15 26.2 47.44l-9.35 1.15c-10.03-7.29-19.31-24.88-26.2-47.44 3.12-.38 6.23-.77 9.35-1.15z"></path><path fill="#ffbe55" d="M866.91 466.52c2.91 5.34 6.08 9.43 9.38 11.82l-9.35 1.15c-3.29-2.39-6.47-6.48-9.38-11.82 3.11-.38 6.23-.76 9.35-1.15z"></path><path fill="#f7f7f7" d="M864.59 412c1.25 14.14 5.82 27.4 11.07 31.22l-9.35 1.15c-5.25-3.82-9.82-17.08-11.07-31.22 3.11-.39 6.23-.77 9.35-1.15zM838.81 387.42c.48 27.12 4.99 54.63 11.88 77.19-3.12.38-6.23.77-9.35 1.15-6.89-22.55-11.39-50.06-11.88-77.19-.79-44.01 9.25-73.48 23.77-75.27l9.35-1.15c-14.52 1.8-24.55 31.27-23.77 75.27z"></path><path fill="#f7f7f7" d="M814.11 369.48c.41 22.78 2.5 45.72 5.94 67.71-3.12.38-6.23.77-9.35 1.15-3.44-21.98-5.53-44.93-5.94-67.71-1.32-73.94 15.54-123.46 39.94-126.46l9.35-1.15c-24.4 3-41.26 52.52-39.94 126.46z"></path><path fill="#ffbe55" d="M851.27 396.48c.48 26.73 6.9 54.03 15.63 70.05-3.12.38-6.23.77-9.35 1.15-8.74-16.02-15.16-43.32-15.63-70.05-.52-28.91 6.07-48.27 15.61-49.44l9.35-1.15c-9.53 1.17-16.12 20.53-15.61 49.44zM857.99 274.95c-13.72 1.69-24.51 21.48-29.5 53.42-3.12.38-6.23.77-9.35 1.15 4.99-31.94 15.78-51.73 29.5-53.42 2.81-.34 6.55-.8 9.35-1.15z"></path><path fill="#f7f7f7" d="M864.26 405.91c.04 2.03.15 4.06.33 6.08-3.12.38-6.23.77-9.35 1.15a88.09 88.09 0 0 1-.33-6.08c-.24-13.17 2.77-21.99 7.12-22.52l9.35-1.15c-4.35.53-7.36 9.36-7.12 22.52z"></path><path fill="#ffbe55" d="M876.28 478.34c2.49 1.81 4.87 2.52 7.09 2.25l-9.35 1.15c-2.22.27-4.6-.44-7.09-2.25 2.81-.34 6.62-1.85 9.35-1.15z"></path><path fill="#f7f7f7" d="M875.66 443.21c1.13.82 2.22 1.15 3.23 1.02l-9.35 1.15c-1.01.12-2.1-.2-3.23-1.02 2.8-.34 6.61-1.86 9.35-1.15zM876.89 512.05c3.79 2.75 7.41 3.84 10.79 3.42l-9.35 1.15c-3.38.42-7-.67-10.79-3.42 2.8-.34 6.54-.81 9.35-1.15z"></path><path fill="#ffbe55" d="M877.53 548c5.17 3.76 10.12 5.24 14.74 4.67l-9.35 1.15c-4.62.57-9.57-.91-14.74-4.67 2.8-.34 6.61-1.86 9.35-1.15z"></path><path fill="#f7f7f7" d="M878.08 578.86c6.36 4.62 12.45 6.45 18.13 5.75l-9.35 1.15c-5.68.7-11.77-1.13-18.13-5.75 2.8-.34 6.54-.81 9.35-1.15z"></path><path fill="#ffbe55" d="m862.03 384.54 9.35-1.15c1.01-.12 2.1.2 3.23 1.02l-9.35 1.15c-1.14-.82-2.22-1.14-3.23-1.02z"></path><path fill="#f7f7f7" d="m857.54 348.19 9.35-1.15c2.22-.27 4.6.44 7.09 2.25l-9.35 1.15c-2.49-1.81-4.87-2.53-7.09-2.25z"></path><path fill="#ffbe55" d="m853.23 313.31 9.35-1.15c3.38-.42 7.01.67 10.8 3.42l-9.35 1.15c-3.79-2.76-7.42-3.84-10.8-3.42zM878.89 444.23l-9.35 1.15c4.34-.54 7.35-9.35 7.11-22.53-.29-16.23-5.39-32.94-11.39-37.29l9.35-1.15c6 4.36 11.1 21.06 11.39 37.29.23 13.18-2.77 22-7.11 22.53z"></path><path fill="#f7f7f7" d="m848.64 276.1 9.35-1.15c4.62-.57 9.57.91 14.75 4.67l-9.35 1.15c-5.18-3.75-10.13-5.24-14.75-4.67z"></path><path fill="#ffbe55" d="m844.7 244.17 9.35-1.15c5.68-.7 11.77 1.12 18.14 5.75l-9.35 1.15c-6.37-4.63-12.46-6.45-18.14-5.75z"></path><path fill="#f7f7f7" d="m883.37 480.59-9.35 1.15c9.54-1.18 16.13-20.54 15.61-49.44-.64-35.64-11.84-72.29-25.01-81.86l9.35-1.15c13.17 9.57 24.37 46.22 25.01 81.86.52 28.9-6.07 48.26-15.61 49.44z"></path><path fill="#ffbe55" d="m887.68 515.47-9.35 1.15c14.52-1.79 24.55-31.27 23.77-75.27-.97-54.26-18.02-110.05-38.07-124.62l9.35-1.15c20.05 14.57 37.1 70.37 38.07 124.62.78 44-9.25 73.48-23.77 75.27z"></path><path fill="#f7f7f7" d="m892.27 552.67-9.35 1.15c19.83-2.45 33.53-42.71 32.46-102.82-1.32-74.11-24.6-150.32-52-170.23l9.35-1.15c27.4 19.9 50.68 96.12 52 170.23 1.08 60.11-12.62 100.38-32.46 102.82z"></path><path fill="#ffbe55" d="m896.22 584.61-9.35 1.15c24.39-3.01 41.25-52.53 39.93-126.46-1.63-91.15-30.27-184.89-63.96-209.38l9.35-1.15c33.7 24.48 62.33 118.23 63.96 209.38 1.32 73.93-15.54 123.45-39.93 126.46z"></path><path fill="#ffbe55" d="M862.84 249.92c33.7 24.48 62.33 118.23 63.96 209.38 1.63 91.16-24.37 145.2-58.07 120.72-33.7-24.48-62.34-118.22-63.97-209.38-1.62-91.16 24.38-145.21 58.08-120.72zm5.34 299.23c27.4 19.9 48.53-24.03 47.21-98.15-1.32-74.11-24.6-150.32-52-170.23-27.4-19.91-48.53 24.04-47.21 98.15 1.32 74.12 24.6 150.33 52 170.23"></path><path fill="#f7f7f7" d="M864.63 350.44c13.17 9.57 24.37 46.22 25.01 81.86.64 35.64-9.53 56.77-22.7 47.2-13.18-9.57-24.37-46.22-25.01-81.86-.64-35.65 9.53-56.78 22.7-47.2zm1.68 93.92c6 4.36 10.63-5.26 10.34-21.5-.29-16.23-5.39-32.94-11.39-37.29-6-4.36-10.64 5.27-10.35 21.5.29 16.24 5.39 32.93 11.4 37.29"></path><path fill="#f7f7f7" d="M915.39 451.01c-.97-54.42-13.79-109.98-31.37-143.54-.37-.71-.75-1.42-1.13-2.11-1.89-3.47-3.84-6.68-5.83-9.62-.4-.59-.8-1.16-1.2-1.73-4.01-5.64-8.19-10.12-12.47-13.23-5.14-3.73-10.05-5.22-14.64-4.68-2.68.31-5.24 1.31-7.68 2.96-.7.47-1.38.99-2.05 1.57-.67.57-1.34 1.2-1.99 1.88-1.95 2.03-3.79 4.51-5.52 7.42-.58.97-1.14 1.99-1.68 3.05a64.67 64.67 0 0 0-1.6 3.33c-.52 1.16-1.03 2.36-1.52 3.6-6.63 16.81-10.56 41.71-10.59 72.17 0 2.26.02 4.54.06 6.86.52 28.95 4.38 58.22 10.54 84.33l.75 3.12c2.03 8.27 4.28 16.21 6.74 23.69 2.76 8.42 5.76 16.26 8.97 23.37.71 1.58 1.43 3.12 2.16 4.63 6.94 14.31 14.71 25.18 22.85 31.09 1.28.93 2.55 1.73 3.81 2.38.84.44 1.67.81 2.49 1.13.82.32 1.64.57 2.44.77 1.21.3 2.4.46 3.58.5.78.02 1.56-.01 2.32-.1 19.12-2.23 32.57-39.57 32.62-95.97 0-2.27-.02-4.56-.06-6.87zm-47.85 62.19c-20.06-14.57-37.11-70.37-38.07-124.62-.97-54.26 14.51-86.42 34.57-71.85 20.05 14.57 37.1 70.37 38.07 124.62.96 54.26-14.52 86.42-34.57 71.85"></path><path fill="#dbdbdb" d="m900.11 616.14-9.35 1.15c28.9-3.57 48.87-62.23 47.3-149.82-1.93-107.98-35.85-219.04-75.77-248.04l9.35-1.15c39.92 29 73.85 140.06 75.77 248.04 1.57 87.59-18.4 146.26-47.3 149.82z"></path><path fill="#f7f7f7" d="M938.07 467.48c-1.93-107.98-35.85-219.04-75.77-248.04-39.92-29.01-70.72 35.02-68.8 143.01 1.93 107.99 35.85 219.04 75.78 248.04 39.91 29 70.71-35.02 68.79-143.01zm-12.17 27.95c-.28 3.87-.62 7.64-1.01 11.3a275.674 275.674 0 0 1-1.82 13.77c-.32 2.03-.66 4.02-1.02 5.97-.19 1.05-.39 2.08-.59 3.11-.37 1.86-.76 3.67-1.16 5.45-.09.41-.19.82-.28 1.23-.34 1.46-.69 2.89-1.06 4.29-.11.44-.23.87-.35 1.31-1.12 4.15-2.33 8.04-3.65 11.66-.19.52-.38 1.02-.57 1.53-.93 2.47-1.91 4.8-2.94 7-.99 2.11-2.01 4.1-3.07 5.95-1.2 2.09-2.45 4.02-3.74 5.76-.69.93-1.4 1.81-2.13 2.64-.09.11-.19.22-.28.32a36.32 36.32 0 0 1-3.53 3.5c-.83.71-1.67 1.35-2.53 1.93-.86.58-1.72 1.09-2.61 1.54-.88.45-1.78.83-2.68 1.14-.82.29-1.65.51-2.49.68l-.48.09c-.82.15-1.65.25-2.49.29-.04 0-.08.01-.12.01-5.23.22-10.79-1.67-16.58-5.87-20.66-15.01-39.41-56.04-51.21-106.55-.47-1.99-.92-4-1.36-6.02-.69-3.16-1.36-6.35-2-9.57-.96-4.84-1.85-9.75-2.68-14.71-.3-1.8-.59-3.62-.87-5.43-2.3-14.83-3.99-30.09-4.96-45.44l-.03-.54c-.44-7.04-.73-14.09-.85-21.13-1.63-91.15 24.37-145.2 58.07-120.71 3.11 2.26 6.18 5.12 9.19 8.5.65.73 1.3 1.49 1.94 2.27 28.66 34.74 51.39 117.69 52.83 198.6.24 12.81-.08 24.9-.89 36.13"></path><path fill="#ffbe55" d="M874.75 406.23c-.18-.85-.37-1.7-.57-2.52-.11-.45-.23-.9-.34-1.34a61.2 61.2 0 0 0-.74-2.6c-.13-.42-.26-.84-.39-1.25-.27-.82-.55-1.61-.84-2.38-1.88-4.99-4.17-8.79-6.61-10.57-.75-.55-1.48-.87-2.18-.99-3.85-.67-6.85 4.83-7.83 14.11-.04.42-.09.85-.12 1.29-.07.87-.13 1.78-.17 2.71-.06 1.4-.07 2.86-.05 4.39.13 7.11 1.17 14.3 2.82 20.51.23.89.48 1.75.74 2.6.52 1.69 1.08 3.28 1.67 4.76.6 1.48 1.23 2.84 1.9 4.05.17.3.33.6.5.89.68 1.14 1.38 2.14 2.11 2.96.54.62 1.1 1.13 1.66 1.54 2.25 1.63 4.31 1.3 5.99-.61.28-.32.55-.68.81-1.08.64-1.01 1.22-2.28 1.71-3.79.2-.6.38-1.24.54-1.92.25-1.01.47-2.11.65-3.28.43-2.73.66-5.86.66-9.32 0-.49 0-1-.01-1.5-.11-5.7-.8-11.42-1.91-16.66z"></path><path fill="#dbdbdb" d="m840.8 212.63 9.35-1.15c6.73-.83 13.95 1.33 21.49 6.81l-9.35 1.15c-7.54-5.48-14.76-7.64-21.49-6.81z"></path><path fill="#ffbe55" d="M864.03 316.73c20.05 14.57 37.1 70.37 38.07 124.62.97 54.26-14.51 86.42-34.56 71.85-20.06-14.57-37.11-70.37-38.07-124.62-.98-54.26 14.5-86.42 34.56-71.85zm2.91 162.77c13.17 9.57 23.34-11.56 22.7-47.2-.64-35.64-11.84-72.29-25.01-81.86-13.18-9.57-23.34 11.55-22.71 47.2.64 35.63 11.84 72.28 25.02 81.86"></path><path fill="#dcf2ff" d="M538.99 260.06c-26.55-25.11-58.76-32.16-98.61-30.29-6.53.31-13.83 1.4-17.58 5.91-3.76 4.51.3 12.75 6.67 11.48-45-21.29-98.65-29.29-149.59-22.32-5.63.77-11.76 1.99-15.12 5.88-3.36 3.88-1.13 10.98 4.57 11.04C227.47 224.39 152 257.9 159.56 260.8l379.43-.74z"></path></svg>